<?xml version="1.0" encoding="UTF-8"?>
<svg version="1.1" xmlns="http://www.w3.org/2000/svg" width="2034" height="875">
<path d="M0 0 C9.23238695 7.0627012 15.81961272 16.02410083 17.625 27.75 C18.66439673 39.33671766 16.18632711 50.2406294 9.34375 59.75390625 C6.93772977 62.54817065 4.25601756 64.87100366 1.359375 67.14453125 C-1.37543555 69.67607886 -2.28501895 71.83209718 -2.64941406 75.54931641 C-2.62788521 83.33199603 -1.75113565 90.5248007 -0.125 98.125 C0.33639591 100.39677857 0.79599494 102.66892274 1.25390625 104.94140625 C1.48480957 106.07465332 1.71571289 107.20790039 1.95361328 108.37548828 C2.99109278 113.59004885 3.91050584 118.82305234 4.8125 124.0625 C4.96686523 124.94921387 5.12123047 125.83592773 5.28027344 126.74951172 C5.42883789 127.61205566 5.57740234 128.47459961 5.73046875 129.36328125 C5.95742432 130.67897095 5.95742432 130.67897095 6.18896484 132.02124023 C6.48393048 133.86717022 6.74376933 135.71900029 6.97119141 137.57446289 C8.34484545 148.23439461 11.48669024 158.3162326 14.625 168.5625 C14.91434418 169.51443237 15.20368835 170.46636475 15.50180054 171.44714355 C21.70984285 191.79906615 29.00796822 211.24433567 39.625 229.75 C39.61452637 229.18716309 39.60405273 228.62432617 39.59326172 228.04443359 C39.03412266 193.31411288 39.03412266 193.31411288 49.9375 181.34765625 C57.54965116 174.14078166 66.64650829 171.6301232 76.9375 171.3125 C91.26271659 171.71400757 101.03750248 177.40507012 112.49511719 185.30517578 C114.54635337 186.69664939 116.62463758 188.02652054 118.7265625 189.33984375 C125.82462459 193.81493775 131.56086318 198.19551995 136.890625 204.81640625 C138.56622222 207.00544244 138.56622222 207.00544244 141.625 207.75 C144.09662486 204.04256272 143.66450248 201.76357594 143.125 197.5625 C142.99266968 196.47134888 142.99266968 196.47134888 142.85766602 195.3581543 C141.51197131 185.51858944 138.83840842 175.93864353 136.25756836 166.36450195 C132.44802938 150.61909363 132.81049638 131.89876612 138.625 116.75 C138.86105957 116.11481445 139.09711914 115.47962891 139.34033203 114.82519531 C149.08403144 89.03046302 168.33505855 65.503659 193.25 53.3125 C205.22160269 48.14490172 217.16660854 47.3259771 229.625 51.5625 C239.35419083 55.51322633 245.94004472 63.50372522 250.625 72.75 C251.66644905 75.26705717 252.64562932 77.75286311 253.5625 80.3125 C253.94426392 81.36655029 253.94426392 81.36655029 254.33374023 82.44189453 C254.85275386 83.8752067 255.37010996 85.30912025 255.88574219 86.74365234 C256.5350979 88.50600546 257.23621546 90.24910537 257.9453125 91.98828125 C262.21645162 102.77357908 264.01051362 114.06719627 266.01831055 125.45019531 C266.21851807 126.53913086 266.41872559 127.62806641 266.625 128.75 C266.75143387 129.50875427 266.87786774 130.26750854 267.00813293 131.04925537 C268.07235727 137.00202603 269.80483574 142.14330196 272.36328125 147.609375 C272.72592575 148.40224915 273.08857025 149.19512329 273.46220398 150.01202393 C274.22439141 151.67139024 274.99185234 153.32834383 275.7644043 154.98291016 C276.93817551 157.50144942 278.09019494 160.02914414 279.24023438 162.55859375 C279.98830826 164.18027629 280.73761539 165.80139063 281.48828125 167.421875 C281.82805496 168.16886658 282.16782867 168.91585815 282.51789856 169.68548584 C285.2848519 175.55952287 288.57489591 180.60591684 293.97265625 184.42578125 C294.57166748 184.85632813 295.17067871 185.286875 295.7878418 185.73046875 C296.414729 186.17003906 297.04161621 186.60960937 297.6875 187.0625 C299.0289028 188.02698647 300.37004547 188.99183481 301.7109375 189.95703125 C303.01559264 190.88806617 304.32027845 191.81905813 305.625 192.75 C320.11956312 203.19099886 335.48764723 214.29104147 339.625 232.75 C340.3942277 237.50611851 340.7759629 242.11843536 340.87109375 246.93359375 C340.90402378 248.28711605 340.93723556 249.64063151 340.97070312 250.99414062 C341.01800846 253.0915071 341.06252517 255.18884422 341.10180664 257.28637695 C341.30732608 268.1641675 341.30732608 268.1641675 343.625 278.75 C347.05009831 277.26877756 350.46315269 275.76146604 353.875 274.25 C355.298125 273.63511719 355.298125 273.63511719 356.75 273.0078125 C363.57189195 269.96561744 369.59806404 266.30570752 375.7277832 262.05456543 C379.66743386 259.34558032 383.65548893 256.70789008 387.6328125 254.0546875 C389.46233593 252.83217542 391.29176152 251.60951692 393.12109375 250.38671875 C394.50917236 249.45931885 394.50917236 249.45931885 395.92529297 248.51318359 C397.81256039 247.25163422 399.6992771 245.98926061 401.58544922 244.72607422 C404.34975802 242.87505586 407.11609336 241.02710057 409.8828125 239.1796875 C410.71225372 238.62328583 411.54169495 238.06688416 412.39627075 237.49362183 C428.0749499 227.04018391 442.29653199 219.15002404 461.625 221.75 C473.40936441 224.52983314 482.08292592 232.84261267 489.15625 242.3515625 C498.39055944 257.43099334 498.04095522 280.12829798 494.4987793 296.89160156 C490.97532943 310.46110893 483.90679215 320.37189098 475.11816406 330.93457031 C472.92926513 333.59589347 470.84073311 336.32315662 468.75 339.0625 C467.94949219 340.10664062 467.14898438 341.15078125 466.32421875 342.2265625 C464.87420105 344.11922876 463.42439287 346.01205382 461.97509766 347.90527344 C437.77183033 379.4677778 405.39019017 409.44540202 365.1484375 417.73046875 C358.58258059 419.63034531 354.56404748 423.24603383 350.625 428.75 C349.52375226 431.27063372 348.61967928 433.58600086 347.8125 436.1875 C347.59658203 436.81720703 347.38066406 437.44691406 347.15820312 438.09570312 C345.75901423 442.41764214 345.42075854 446.22751047 345.625 450.75 C359.28144456 452.16226284 372.89787573 453.36775961 386.625 453.75 C388.30843506 453.80099854 388.30843506 453.80099854 390.02587891 453.85302734 C423.71924535 454.73346151 457.97312923 452.43440619 490.625 443.75 C491.86604492 443.42370605 493.10708984 443.09741211 494.38574219 442.76123047 C534.72477194 432.04936695 576.7321076 416.28537729 610.49804688 391.32080078 C614.12356086 388.64328046 617.78313908 386.01292938 621.4375 383.375 C622.17081543 382.84350342 622.90413086 382.31200684 623.65966797 381.7644043 C631.11223414 376.37069629 638.65203166 371.10384048 646.19921875 365.84375 C646.9473584 365.31910156 647.69549805 364.79445313 648.46630859 364.25390625 C649.87767982 363.27063926 651.29705348 362.29873507 652.72509766 361.33984375 C656.59978259 358.80232891 656.59978259 358.80232891 658.625 354.75 C657.97015625 354.61464844 657.3153125 354.47929688 656.640625 354.33984375 C639.75463787 350.35684961 625.96749785 338.45181858 613.625 326.75 C612.18833984 325.41001953 612.18833984 325.41001953 610.72265625 324.04296875 C601.95002571 315.69200373 594.98875547 306.31591934 588.2890625 296.2578125 C575.43449424 277.08871948 560.47247064 269.4021401 539.36987305 261.86938477 C524.15641885 256.36638432 506.3680789 248.49897232 498.41015625 233.453125 C493.66510625 223.11871006 492.55948922 210.68054529 496.1875 199.75 C500.13090496 190.9647718 506.92577471 184.08519251 513.6875 177.375 C514.42774414 176.63749512 515.16798828 175.89999023 515.93066406 175.14013672 C521.92529938 169.2573704 528.25571525 164.08363892 534.953125 159.03710938 C559.04227919 140.49183763 582.36461132 121.12167346 586.60473633 89.61401367 C587.27548944 84.21994171 587.81964683 78.81747813 588.33203125 73.40625 C588.45433105 72.13845703 588.57663086 70.87066406 588.70263672 69.56445312 C588.9360343 67.09050208 589.15593929 64.61522658 589.35986328 62.13867188 C590.57461437 48.95413369 593.26699622 37.56961326 603.1875 28.375 C609.11199871 24.42533419 614.66279439 23.97750809 621.625 24.75 C627.83193174 26.5249274 632.07099372 30.44973458 635.625 35.75 C638.70953486 45.00360459 635.94262612 54.31823849 633.61254883 63.42236328 C632.0593433 69.59718317 630.97337205 75.68467669 630.1875 82 C624.41418026 126.78889629 604.69579151 158.34226219 569.57250977 185.73852539 C565.04993185 189.22787288 560.45343251 192.60702364 555.8125 195.9375 C548.17898595 201.48207571 542.24493267 206.43585151 537.625 214.75 C539.47931641 215.33201172 539.47931641 215.33201172 541.37109375 215.92578125 C547.30149019 217.90566941 552.97764529 220.40075672 558.6875 222.9375 C559.78787598 223.42508789 560.88825195 223.91267578 562.02197266 224.41503906 C583.66225182 234.07027421 601.78744042 243.73169158 616.625 262.75 C617.53572266 263.87921875 617.53572266 263.87921875 618.46484375 265.03125 C621.72830865 269.11613123 624.69554303 273.31455397 627.5625 277.6875 C638.63041246 294.47063507 651.87722339 308.2323744 671.59765625 314.36328125 C685.13648642 316.94583267 697.26175586 311.92974113 708.3828125 304.58984375 C727.38093908 290.14243121 738.59811686 260.40826173 749.75292969 240.08081055 C751.10060839 237.68300401 752.47823277 235.336547 753.91113281 232.99145508 C762.00181285 219.48873622 766.84955467 205.04629668 771.875 190.1875 C772.73877392 187.66613061 773.60779386 185.14661062 774.4765625 182.62695312 C776.13665483 177.80859828 777.78383781 172.98612709 779.42236328 168.16040039 C780.74150096 164.29043517 782.09062872 160.43713683 783.51123047 156.60327148 C786.42459458 148.73757937 788.54854523 141.3468946 789.25 132.9375 C790.03556908 125.26337655 791.1300506 117.84041092 792.8125 110.3125 C794.18203054 103.97137733 795.01494986 97.86949743 795.0625 91.375 C795.07240967 90.69123291 795.08231934 90.00746582 795.0925293 89.30297852 C794.98345408 83.03076144 792.96726664 78.94923202 788.62890625 74.56640625 C786.91746877 72.92603192 785.18492098 71.31009504 783.45117188 69.69335938 C776.42098412 62.9544107 773.52032237 56.70029623 773.25 46.9375 C773.19931185 34.04370264 777.74353105 22.20697569 786.625 12.75 C797.40318645 3.15370961 808.69329575 1.85959805 822.58544922 2.58154297 C826.91229486 2.93891949 830.67638981 3.98633505 834.625 5.75 C835.38941406 6.07871094 836.15382813 6.40742188 836.94140625 6.74609375 C845.57414517 10.96751769 851.34656775 17.87619145 854.93359375 26.70703125 C858.1426219 36.18907488 858.1292058 49.2298898 854.65625 58.66796875 C852.7852412 62.44542212 850.34718846 65.54982555 847.625 68.75 C846.01628473 70.66285049 844.41232176 72.5797052 842.8125 74.5 C842.04292969 75.40234375 841.27335938 76.3046875 840.48046875 77.234375 C836.6020889 82.49264158 837.3054389 88.5807645 837.00390625 94.92578125 C836.625 98.75 836.625 98.75 835.67236328 101.77148438 C834.47627978 105.81269827 834.15427181 109.83017845 833.7808075 114.01618958 C832.31322914 130.14194451 828.55163738 145.47542928 824.35174561 161.05206299 C823.45128412 164.40919949 822.57382515 167.77234156 821.69335938 171.13476562 C820.01265456 177.53619691 818.2968878 183.92739465 816.55966187 190.31375122 C815.96399724 192.50368955 815.37125551 194.6944265 814.78237915 196.88619995 C811.72955105 208.22333579 808.26782952 218.97558172 803.4375 229.6875 C802.86750061 230.97230755 802.29792952 232.25730518 801.72875977 233.54248047 C791.84609326 255.72412101 781.4975008 278.71865615 765.140625 296.9453125 C762.86512775 299.48227993 760.73011758 302.07153738 758.625 304.75 C755.59999147 308.56976637 752.47735757 312.29606722 749.3125 316 C745.50755447 320.45639633 741.8371094 324.99178606 738.25 329.625 C733.79585333 335.36873736 729.11570264 340.87734753 724.32958984 346.34619141 C718.85375715 352.60732427 713.61303273 359.04630209 708.390625 365.51953125 C697.28137444 379.21455565 685.34519624 390.695645 671.625 401.75 C670.51507259 402.66339164 669.40572183 403.57748435 668.296875 404.4921875 C652.09401323 417.77201371 634.83832217 429.41080264 616.625 439.75 C615.90151367 440.16137207 615.17802734 440.57274414 614.43261719 440.99658203 C603.54254294 447.11131624 592.23191633 452.3249397 580.875 457.5 C580.1816153 457.8165152 579.48823059 458.1330304 578.77383423 458.45913696 C550.21092114 471.46226605 520.42263131 482.48473504 489.625 488.75 C488.61163574 488.97236328 487.59827148 489.19472656 486.55419922 489.42382812 C438.5212075 499.87128287 383.20388352 500.97740567 334.625 493.75 C333.3373877 493.56244141 332.04977539 493.37488281 330.72314453 493.18164062 C326.68582731 492.58684626 322.65453655 491.95774541 318.625 491.3125 C317.41384521 491.11954346 316.20269043 490.92658691 314.95483398 490.7277832 C307.99827507 489.54332849 301.45931517 487.83960229 294.75244141 485.65893555 C291.79823593 484.80034796 289.00543076 484.29752061 285.9609375 483.890625 C278.2173092 482.72590193 271.02055268 480.01704927 263.68066406 477.37451172 C261.26490162 476.50536135 258.844048 475.65188137 256.421875 474.80078125 C248.04182234 471.83379744 239.81734036 468.66912666 231.70410156 465.03271484 C228.43300887 463.67001892 225.14682207 462.62891089 221.75 461.625 C201.8230301 455.13379471 183.46364378 443.53449276 165.625 432.75 C164.82497559 432.26724609 164.02495117 431.78449219 163.20068359 431.28710938 C145.8805971 420.78462362 131.24792208 408.53754162 116.95703125 394.21484375 C115.86722581 393.12571434 114.77727218 392.03673321 113.68717957 390.94789124 C111.42076916 388.6829425 109.15614468 386.41622775 106.89282227 384.14819336 C104.01178041 381.26144142 101.12625187 378.37922259 98.23936939 375.49831295 C95.99402405 373.25660317 93.75109287 371.01249 91.50885582 368.76767159 C90.44639856 367.70455404 89.3832169 366.64215987 88.31925392 365.58054924 C83.11274483 360.3830363 78.01245964 355.1503536 73.22328186 349.56175232 C70.50072319 346.47556201 67.54108194 343.64213075 64.58203125 340.78515625 C63.24612598 339.47654288 61.9108605 338.16727611 60.57617188 336.85742188 C58.52032296 334.84435757 56.46117561 332.83533983 54.39038086 330.83764648 C40.82825809 317.73155762 30.38739278 303.56708201 21.1875 287.125 C20.56407715 286.02526855 19.9406543 284.92553711 19.29833984 283.79248047 C18.0222279 281.53996668 16.74939286 279.28559301 15.47998047 277.02929688 C13.70800901 273.89674612 11.90853888 270.78205703 10.09765625 267.671875 C3.13529776 255.661305 -3.02628663 243.5595674 -8.375 230.75 C-8.77283691 229.80995117 -9.17067383 228.86990234 -9.58056641 227.90136719 C-14.64634788 215.87235975 -19.209439 203.72472502 -23.25 191.3125 C-23.60707031 190.22517578 -23.96414062 189.13785156 -24.33203125 188.01757812 C-30.50598433 168.55215249 -33.38534799 148.37671674 -36.63226318 128.27142334 C-37.12328081 125.23852357 -37.61920397 122.20643527 -38.11532021 119.174366 C-38.71682603 115.4967655 -39.31558013 111.81871854 -39.9140625 108.140625 C-40.02447498 107.46331581 -40.13488747 106.78600662 -40.24864578 106.08817291 C-41.56559375 97.99581428 -42.79290041 89.90553928 -43.82870483 81.77191162 C-45.47304255 72.67601703 -51.0405802 66.65479988 -56.9296875 59.8515625 C-65.24046341 49.31041862 -67.51335658 38.86697245 -66.375 25.75 C-65.20351789 21.43773396 -63.50632367 17.66870357 -61.375 13.75 C-60.70597656 12.51443359 -60.70597656 12.51443359 -60.0234375 11.25390625 C-54.51771992 2.13410031 -46.44629126 -3.14857587 -36.375 -6.25 C-23.73750047 -9.2870765 -10.84048785 -7.16685808 0 0 Z M192.91015625 105.3359375 C180.69270761 118.24257555 174.81774858 134.96736029 175.12890625 152.6484375 C175.68363257 159.04429054 177.97980653 165.03829353 180.1171875 171.046875 C183.1425526 179.95468435 183.96909568 188.76366622 183.875 198.125 C183.86158569 199.63598267 183.86158569 199.63598267 183.84790039 201.17749023 C183.59863955 217.20380024 180.70563399 230.59161438 169.625 242.75 C160.98745287 250.00666684 151.46830274 254.25995006 140.015625 254.01953125 C124.72808761 252.29593635 114.92417292 243.58809599 105.1875 232.58203125 C101.91110872 228.96101954 98.42571758 225.80456444 94.625 222.75 C93.92246094 222.17121094 93.21992188 221.59242188 92.49609375 220.99609375 C88.17181527 217.39869288 88.17181527 217.39869288 82.625 216.75 C82.604375 218.02875 82.58375 219.3075 82.5625 220.625 C82.55089844 221.34429688 82.53929687 222.06359375 82.52734375 222.8046875 C82.60986315 225.29347255 82.82712314 227.68113434 83.10546875 230.15234375 C83.80325404 236.90655555 83.94255014 243.65086856 84 250.4375 C84.00589142 251.11176025 84.01178284 251.78602051 84.01785278 252.48071289 C84.06652744 262.82110258 83.00764491 272.50691134 80.31591797 282.5300293 C78.72791263 288.46077727 77.92581351 293.23025655 80.71875 299.015625 C88.50833268 310.00759167 97.0428929 320.17555862 107.3125 328.9375 C111.29059325 332.34159983 114.94500588 336.031264 118.625 339.75 C122.85898845 344.02851574 127.11438513 348.16725113 131.71484375 352.0546875 C134.06750608 354.14273546 136.23927207 356.37517047 138.4375 358.625 C148.75775558 369.00770796 160.66340599 377.38151574 172.625 385.75 C173.3679834 386.27609863 174.1109668 386.80219727 174.87646484 387.34423828 C186.92828122 395.81087029 199.62856533 402.52937488 212.85595703 408.9309082 C214.15930874 409.5630478 215.46253178 410.19545273 216.765625 410.828125 C217.41497009 411.14229874 218.06431519 411.45647247 218.7333374 411.78016663 C222.73460493 413.74176741 226.59455964 415.86275551 230.43484497 418.12185669 C239.89489779 423.6698587 249.68366012 427.46973183 260 431.125 C261.67362227 431.73184653 263.34680158 432.33991613 265.01953125 432.94921875 C279.99161663 438.91253248 279.99161663 438.91253248 295.75 440.9375 C296.86632812 440.91042969 297.98265625 440.88335938 299.1328125 440.85546875 C299.95523438 440.82066406 300.77765625 440.78585937 301.625 440.75 C304.13256027 435.03565592 306.45859732 429.31737438 308.45703125 423.40625 C311.93124333 413.1968357 314.9391386 404.58715788 322.625 396.75 C323.54539062 395.59371094 323.54539062 395.59371094 324.484375 394.4140625 C333.29563231 383.45460609 345.75330329 379.29942303 358.6875 375.1875 C370.70887059 371.34475212 381.81282589 367.11827602 391.8125 359.1875 C392.33658447 358.7747583 392.86066895 358.3620166 393.40063477 357.93676758 C395.15087719 356.55180643 396.88887441 355.1526116 398.625 353.75 C399.63530273 352.93692383 399.63530273 352.93692383 400.66601562 352.10742188 C404.74484478 348.82117914 408.81645389 345.52622236 412.85913086 342.19555664 C413.98099404 341.27718917 415.11119832 340.36884678 416.25219727 339.47436523 C419.96326702 336.52174499 422.85542095 333.2064265 425.6875 329.4375 C428.71000563 325.47930605 431.7518006 321.56277525 434.98046875 317.76953125 C445.25008624 305.65816026 454.06135692 293.10167685 453.875 276.5625 C453.88273437 275.86447266 453.89046875 275.16644531 453.8984375 274.44726562 C453.88426134 270.72247937 453.68353506 267.9113217 451.625 264.75 C437.47208775 266.9334091 423.96750539 279.06376328 412.4375 286.9375 C410.57787377 288.20176017 408.71784975 289.46543542 406.85742188 290.72851562 C404.10621303 292.59655217 401.35512859 294.4647643 398.6051178 296.33456421 C392.63039714 300.39555813 386.64513064 304.44019184 380.640625 308.45703125 C379.91700272 308.94294235 379.19338043 309.42885345 378.4478302 309.92948914 C367.26966721 317.38725533 356.70629785 321.18374942 343.625 323.75 C342.63242187 324.00523437 341.63984375 324.26046875 340.6171875 324.5234375 C336.46460397 324.83786288 333.43833078 323.60001777 329.625 322.0625 C328.59632813 321.67674805 328.59632813 321.67674805 327.546875 321.28320312 C316.68283954 317.06405958 310.11479067 310.20393654 305.078125 299.8125 C301.4561553 290.6653272 300.27899551 280.40324232 298.625 270.75 C298.44340332 269.75532715 298.26180664 268.7606543 298.07470703 267.73583984 C297.64713769 264.89698366 297.48514268 262.2114614 297.44921875 259.34375 C297.42537109 258.35246094 297.40152344 257.36117187 297.37695312 256.33984375 C297.33398878 254.28015895 297.30273574 252.22019651 297.28320312 250.16015625 C297.08279613 242.99211061 295.83430259 239.16951891 290.8359375 233.84375 C287.36289149 230.82885049 283.94429585 228.26726009 279.9375 226 C256.67453296 212.52820495 239.30233191 187.92055111 232.375 162.125 C231.78291674 159.66875938 231.19944881 157.21042458 230.625 154.75 C229.9874874 152.33112502 229.3415247 149.91446271 228.6875 147.5 C227.99937189 144.91683157 227.31179805 142.33352179 226.625 139.75 C226.43292969 139.02828613 226.24085938 138.30657227 226.04296875 137.56298828 C225.42281987 135.22992816 224.80461926 132.89636328 224.1875 130.5625 C223.87462036 129.37998657 223.87462036 129.37998657 223.55541992 128.17358398 C222.43546996 123.91554365 221.34757268 119.65164827 220.30078125 115.375 C220.08284912 114.48707764 219.86491699 113.59915527 219.64038086 112.68432617 C219.22660372 110.99025346 218.81696725 109.2951616 218.41235352 107.59887695 C217.16154278 102.47643351 215.56452093 97.65485785 213.625 92.75 C206.13110363 92.75 198.0275953 100.48612997 192.91015625 105.3359375 Z " fill="#FDFDFD" transform="translate(66.375,378.25)"/>
<path d="M0 0 C6.55190007 4.7327174 11.52060701 11.47015531 15.9453125 18.1484375 C19.16374502 21.58454179 22.68231678 22.78597908 27.30526733 23.25354004 C28.72082492 23.27066003 30.13663613 23.27179915 31.55224609 23.25976562 C32.33031113 23.2651384 33.10837616 23.27051117 33.91001892 23.27604675 C35.59106344 23.28579215 37.27215807 23.28877873 38.953228 23.28569031 C41.61933945 23.28119366 44.28479363 23.295265 46.95083618 23.31408691 C52.61304688 23.35079401 58.27518787 23.36456289 63.9375 23.375 C70.49527882 23.3871041 77.05273596 23.40877062 83.61037064 23.45500183 C86.22714337 23.46851101 88.84350307 23.4644122 91.46029663 23.45959473 C93.07819127 23.46894201 94.69608143 23.4791125 96.31396484 23.49023438 C97.03318619 23.48408615 97.75240753 23.47793793 98.49342346 23.47160339 C105.46132997 23.55517948 111.66654605 25.4953844 116.9375 30.25 C117.58460938 30.81460938 118.23171875 31.37921875 118.8984375 31.9609375 C122.27169962 35.84098079 122.81311138 39.73453151 122.82319641 44.75354004 C122.83028909 45.93624104 122.83738176 47.11894203 122.84468937 48.33748245 C122.84220408 49.6318359 122.8397188 50.92618935 122.8371582 52.25976562 C122.84144727 53.65043783 122.84656156 55.0411077 122.8524313 56.43177414 C122.86573142 60.2439022 122.8661012 64.05593441 122.86376667 67.86808109 C122.86311222 71.12153279 122.86921596 74.37495871 122.87519586 77.6284039 C122.89267667 87.35707391 122.88915776 97.08566999 122.8797493 106.81434631 C122.87535557 111.4436761 122.87403258 116.0730006 122.87373286 120.70233226 C122.86940469 173.52468967 122.35823552 226.31703162 121.125 279.125 C121.10779404 279.86301173 121.09058807 280.60102345 121.07286072 281.36139917 C120.75742065 294.87220449 120.43196837 308.38276364 120.09631348 321.89308167 C119.58855716 342.36497777 119.15480033 362.83618556 118.875 383.3125 C118.86561024 383.98184067 118.85622047 384.65118134 118.84654617 385.34080505 C118.5985524 403.12463923 118.53965166 420.90610862 118.54296875 438.69140625 C118.54312799 439.67567533 118.54328724 440.65994442 118.54345131 441.67403984 C118.5461083 451.39309791 118.55570667 461.11207352 118.58970356 470.83107662 C118.60163686 474.39157996 118.60987636 477.95208749 118.61774635 481.51260185 C118.62473017 483.93755823 118.63740705 486.362438 118.65031433 488.78736877 C118.7676483 523.9505677 118.7676483 523.9505677 112.10546875 532.37109375 C107.88827696 536.48152119 102.44916278 538.44135694 96.640625 538.91015625 C91.5988304 538.82486273 87.19869149 537.80465426 82.8125 535.3125 C74.77662372 526.60696736 74.86213463 517.87637342 74.97900391 506.62915039 C74.97877688 504.88318222 74.97635696 503.13721317 74.97192383 501.39125061 C74.96622789 496.65746405 74.99150619 491.92429634 75.02259874 487.19062734 C75.05034081 482.18948085 75.05015147 477.18832996 75.05331421 472.18711853 C75.06252013 463.75460307 75.09000964 455.32231415 75.13037109 446.88989258 C75.18651438 435.15265522 75.20946408 423.41553518 75.22565579 411.67818463 C75.23982085 402.42215995 75.26412575 393.16615709 75.2890625 383.91015625 C75.29271844 382.46572549 75.29271844 382.46572549 75.29644823 380.99211431 C75.35238913 359.53129758 75.53270661 338.07863823 76.01708984 316.62280273 C76.03626252 315.72591677 76.0554352 314.8290308 76.07518888 313.90496647 C76.13064894 311.36838574 76.19207375 308.83202649 76.25570679 306.29563904 C76.27947911 305.18945884 76.27947911 305.18945884 76.30373168 304.06093156 C76.39770487 300.61156228 76.61038111 297.24325634 77.07457924 293.82277393 C77.55567326 289.93023524 77.68282993 286.21003674 77.67602539 282.28997803 C77.67624868 281.21058342 77.67624868 281.21058342 77.67647648 280.10938287 C77.67578733 277.72100308 77.66796918 275.33270221 77.66015625 272.94433594 C77.65823498 271.22193444 77.65677217 269.49953238 77.6557312 267.77713013 C77.65257784 264.07660631 77.64632009 260.37610551 77.63766479 256.67559052 C77.62408127 250.80539629 77.61823436 244.93520957 77.61352539 239.06500244 C77.60150039 225.52910779 77.57953108 211.99323276 77.55729675 198.45735168 C77.53704102 186.07799425 77.51897441 173.69864385 77.50908184 161.31927323 C77.50414651 155.50424233 77.49435693 149.68924741 77.48065186 143.87423086 C77.47309635 140.22624246 77.46985757 136.57825871 77.4676857 132.93026352 C77.4658418 131.26159499 77.46229935 129.59292714 77.45675278 127.92426682 C77.42281363 117.36450283 77.73998694 106.86830489 78.33764648 96.3249855 C78.67021276 90.25735797 78.67467758 84.20094999 78.625 78.125 C78.61823242 76.47177734 78.61823242 76.47177734 78.61132812 74.78515625 C78.59986384 72.14837114 78.58365888 69.5117218 78.5625 66.875 C71.16100003 66.82413257 63.75954546 66.78919612 56.35791016 66.76513672 C53.8419425 66.75510263 51.32598643 66.74147232 48.81005859 66.72412109 C45.18584322 66.69975903 41.56178256 66.68849069 37.9375 66.6796875 C36.81947998 66.66936493 35.70145996 66.65904236 34.54956055 66.64840698 C24.13121618 66.48654549 24.13121618 66.48654549 15.09375 70.9765625 C14.4234375 71.80929688 13.753125 72.64203125 13.0625 73.5 C12.30839844 74.39332031 11.55429687 75.28664063 10.77734375 76.20703125 C9.68099609 77.52767578 9.68099609 77.52767578 8.5625 78.875 C0.91826749 87.53646893 -7.94562544 93.00778501 -19.68212891 94.08007812 C-22.04223108 94.17802012 -24.38795473 94.20399773 -26.75 94.1875 C-27.58523193 94.18258545 -28.42046387 94.1776709 -29.28100586 94.17260742 C-42.13919588 93.92929378 -54.06409351 89.76060607 -63.5625 80.875 C-73.8875293 69.86163542 -78.78549662 57.00588739 -78.58203125 42.0234375 C-77.90859567 27.35346248 -71.51770272 16.39702979 -61.4375 5.875 C-46.31533199 -7.70974759 -17.91565564 -10.03415597 0 0 Z M-35.4375 33.6875 C-37.89803373 37.60897563 -38.59086035 40.27192611 -38.625 44.8125 C-38.63917969 45.66714844 -38.65335937 46.52179688 -38.66796875 47.40234375 C-38.32145552 51.12001962 -37.23358705 53.17842383 -34.4375 55.625 C-30.06245897 57.44793376 -26.10488094 57.66569118 -21.4375 56.875 C-17.5074275 54.33682818 -16.20589094 51.83287295 -15.0625 47.4375 C-14.41885311 43.63241102 -14.09351283 40.57096471 -15.4375 36.875 C-19.0156494 33.02562062 -22.49689912 30.72884845 -27.75 30.4375 C-31.39869895 30.46100209 -33.0625139 30.87373348 -35.4375 33.6875 Z " fill="#FDFDFD" transform="translate(340.4375,24.125)"/>
<path d="M0 0 C2.12564719 -0.00652706 4.24652219 -0.06098541 6.37133789 -0.11791992 C20.76396913 -0.29563655 31.02885863 5.70459403 41.39282227 15.35668945 C49.82132068 24.11145233 53.30113417 36.14900912 53.52563477 48.0871582 C53.03890246 62.36463921 48.61496034 73.64927945 39.45922852 84.5559082 C38.97711914 85.16176758 38.49500977 85.76762695 37.99829102 86.3918457 C35.03728241 89.76363006 31.85755967 91.41427075 27.76000977 93.2199707 C26.76783447 93.66034668 25.77565918 94.10072266 24.75341797 94.55444336 C23.99633545 94.88492676 23.23925293 95.21541016 22.45922852 95.5559082 C21.72509018 140.63687471 21.25039305 185.71408778 21.00036573 230.8002045 C20.95391942 239.13431627 20.90311616 247.46840025 20.8519907 255.80248443 C20.76086721 270.66046694 20.67157157 285.51845964 20.58422852 300.37646484 C20.5790751 301.25294087 20.57392168 302.12941689 20.5686121 303.0324528 C20.51075433 312.8808442 20.45343415 322.72923861 20.39672852 332.57763672 C20.37589923 336.1941732 20.35506736 339.81070967 20.33422852 343.42724609 C20.32908265 344.32047178 20.32393679 345.21369747 20.31863499 346.13399061 C20.23270764 361.03206789 20.14315351 375.93012088 20.05071259 390.82815915 C19.99426686 399.94956802 19.94088895 409.07098442 19.89160061 418.19243483 C19.85781746 424.40212072 19.82066975 430.61178067 19.78087711 436.82143094 C19.75809772 440.39368647 19.73684063 443.96593382 19.71972656 447.53822136 C19.70113076 451.41310731 19.6752352 455.2879255 19.64868164 459.1627655 C19.64449471 460.28109195 19.64030777 461.39941841 19.63599396 462.55163354 C19.59087387 468.21392125 19.34052424 473.7657107 18.6808548 479.39133054 C18.31985467 482.91714348 18.35449546 486.42584462 18.39672852 489.96606445 C18.40556276 491.53670177 18.41426546 493.10733983 18.42285156 494.67797852 C18.42908539 495.48481079 18.43531921 496.29164307 18.44174194 497.1229248 C18.72799012 537.97298785 18.72799012 537.97298785 16.14672852 554.7434082 C16.04126709 555.45658203 15.93580566 556.16975586 15.82714844 556.90454102 C14.57816772 563.94129325 11.24279321 568.50741291 5.45922852 572.5559082 C0.91362659 575.23148402 -3.39295131 575.07886136 -8.54077148 574.5559082 C-14.34905008 572.43365256 -19.13842785 568.87702869 -22.35327148 563.5559082 C-24.07045842 559.21775173 -24.66700782 555.2883985 -24.65099525 550.63890648 C-24.65011961 549.66908533 -24.64924396 548.69926419 -24.64834177 547.70005453 C-24.6422201 546.64205258 -24.63609843 545.58405064 -24.62979126 544.49398804 C-24.6272677 543.36344832 -24.62474414 542.2329086 -24.6221441 541.06811011 C-24.61240194 537.26892695 -24.59536746 533.46981142 -24.57836914 529.6706543 C-24.5693002 526.94794989 -24.56175193 524.22524173 -24.55412292 521.50253296 C-24.53454716 514.85458336 -24.50947966 508.20666517 -24.48251988 501.55874185 C-24.46059915 496.12411391 -24.4407675 490.68948195 -24.42240524 485.25484085 C-24.41978311 484.47879964 -24.41716099 483.70275843 -24.4144594 482.90320081 C-24.40914062 481.32560465 -24.40382784 479.74800846 -24.39852099 478.17041226 C-24.35128361 464.18935568 -24.29891518 450.20832283 -24.24389648 436.22729492 C-24.19103016 422.79306299 -24.14238308 409.35882449 -24.09838867 395.92456055 C-24.05026908 381.2320957 -23.99948946 366.53964401 -23.94456327 351.8472029 C-23.93863033 350.25914423 -23.93269898 348.67108556 -23.92676926 347.08302689 C-23.92385087 346.3022683 -23.92093249 345.52150972 -23.91792566 344.71709179 C-23.89800734 339.34712836 -23.87979294 333.97716088 -23.86226273 328.60718918 C-23.74307268 292.45454616 -23.40481598 256.31851187 -22.71201241 220.17174649 C-22.50012853 208.86948662 -22.37310326 197.56655228 -22.25952148 186.26293945 C-22.23933403 184.29721466 -22.21913094 182.33149003 -22.19891167 180.36576557 C-22.12489492 173.13108643 -22.05450984 165.89637796 -21.98852539 158.66162109 C-21.94586984 154.0094379 -21.8987814 149.35731689 -21.84889221 144.70520592 C-21.83124959 142.97856988 -21.81527579 141.25191582 -21.8011322 139.52524757 C-21.78167727 137.15755661 -21.75657366 134.78998615 -21.73022461 132.42236328 C-21.72604019 131.73965363 -21.72185577 131.05694397 -21.71754456 130.35354614 C-21.65743544 125.67551855 -21.17021608 121.18288113 -20.54077148 116.5559082 C-20.34189248 113.51305936 -20.31133706 110.47975457 -20.29077148 107.4309082 C-20.27014648 106.65875977 -20.24952148 105.88661133 -20.22827148 105.09106445 C-20.19468893 100.16282402 -20.72718261 96.77326616 -23.54077148 92.5559082 C-26.00942571 90.18692827 -26.00942571 90.18692827 -28.85327148 88.1184082 C-41.45555639 78.15612764 -46.2956706 67.49612445 -48.54077148 51.5559082 C-49.99561765 39.01229551 -44.72363098 28.52331235 -37.54077148 18.5559082 C-37.07928711 17.90879883 -36.61780273 17.26168945 -36.14233398 16.5949707 C-26.63715481 4.45251638 -14.84925238 -0.00509059 0 0 Z M-5.54077148 39.5559082 C-8.32017946 42.18903155 -9.41578084 44.21382854 -10.72827148 47.8059082 C-10.44820516 53.40723467 -7.35497775 56.62150636 -3.54077148 60.5559082 C0.2055332 63.05344466 1.92888696 62.75984621 6.23657227 62.1574707 C9.76228917 61.20323449 11.33352997 59.45458804 13.45922852 56.5559082 C15.67625043 51.92031692 15.72271372 48.51960008 14.45922852 43.5559082 C12.8618125 40.56075317 11.58804832 39.03407365 8.43969727 37.70043945 C2.942771 36.15530686 -0.53236919 36.51158524 -5.54077148 39.5559082 Z " fill="#FDFDFD" transform="translate(520.540771484375,-0.555908203125)"/>
<path d="M0 0 C10.66293486 8.44947134 17.45694672 20.61294312 20.70703125 33.61328125 C21.84958183 47.32388823 19.60526212 60.14727406 10.9140625 71.21484375 C6.8190686 75.88074042 2.55594776 80.02500241 -2.4140625 83.75 C-7.44447944 89.50421794 -6.23852947 98.05024601 -6.09765625 105.16015625 C-6.07235784 107.63931728 -6.04763636 110.11848425 -6.0234375 112.59765625 C-5.97391099 116.47935812 -5.91801248 120.36074542 -5.85107422 124.2421875 C-5.79028182 128.00652953 -5.75500187 131.77047681 -5.72265625 135.53515625 C-5.68227737 137.25445343 -5.68227737 137.25445343 -5.64108276 139.00848389 C-5.58764007 147.69009356 -6.83265763 155.64263329 -12.41796875 162.55078125 C-20.25804752 168.71084314 -25.46979971 169.76766269 -35.14770508 169.72680664 C-36.05551727 169.72695267 -36.96332947 169.72709869 -37.89865112 169.72724915 C-40.89079196 169.72655406 -43.88287007 169.71878056 -46.875 169.7109375 C-48.95293646 169.70907189 -51.03087337 169.70764866 -53.10881042 169.70664978 C-58.57173888 169.7028359 -64.03464066 169.69301524 -69.49755859 169.6819458 C-75.0745406 169.67170741 -80.65152693 169.66714696 -86.22851562 169.66210938 C-97.16667838 169.65139197 -108.10482134 169.63432909 -119.04296875 169.61328125 C-119.04720069 170.3824031 -119.05143263 171.15152494 -119.05579281 171.94395351 C-119.16046635 190.9214643 -119.26926697 209.89894766 -119.38230801 228.87641048 C-119.4368874 238.05488559 -119.49019406 247.23336444 -119.5402832 256.41186523 C-119.92493609 326.61132579 -119.92493609 326.61132579 -120.39882088 353.39163399 C-120.4342974 355.41720498 -120.46708265 357.44282538 -120.49682426 359.46848869 C-120.93927967 388.53494354 -120.93927967 388.53494354 -128.04296875 396.61328125 C-133.3188082 401.53655864 -139.19830339 403.91310739 -146.48046875 403.67578125 C-151.95218311 402.89009919 -155.58166229 399.78720963 -159.04296875 395.61328125 C-162.37457928 390.3097315 -162.47079893 385.93034772 -162.4306488 379.86790466 C-162.43603434 378.8918979 -162.44141988 377.91589114 -162.44696862 376.91030842 C-162.46126658 373.64246963 -162.45413965 370.37503487 -162.44702148 367.10717773 C-162.45272429 364.76288019 -162.4596882 362.41858542 -162.46781921 360.07429504 C-162.4857812 353.70617202 -162.48457579 347.33818657 -162.47887683 340.9700458 C-162.47539665 334.97659008 -162.48334776 328.98315137 -162.49023748 322.98970092 C-162.50396264 310.38688481 -162.49852621 297.78413078 -162.48705227 285.18131609 C-162.47713424 273.67353427 -162.49003568 262.16591358 -162.51398646 250.65815663 C-162.53842647 238.82552733 -162.54797244 226.99297292 -162.54133373 215.16031891 C-162.53785052 208.52397193 -162.54035126 201.88773274 -162.55758476 195.2514019 C-162.57309847 189.00425105 -162.56904892 182.75740621 -162.55027962 176.51026726 C-162.54660519 174.22427935 -162.54966854 171.93826855 -162.56016541 169.65230179 C-162.68317191 140.63591692 -162.68317191 140.63591692 -152.48046875 128.80078125 C-148.66261112 125.64689886 -143.59014812 126.445933 -138.92163086 126.42382812 C-137.98806259 126.41553482 -137.05449432 126.40724152 -136.09263611 126.3986969 C-134.06447484 126.38129346 -132.03629344 126.36612745 -130.00810051 126.35292053 C-126.80218601 126.33191247 -123.59637296 126.30488918 -120.39051819 126.27624512 C-112.42952501 126.20637138 -104.46845975 126.14695913 -96.50738525 126.08721924 C-89.78000656 126.03634857 -83.05268271 125.98154514 -76.32538033 125.92140198 C-73.16004678 125.89476047 -69.9947083 125.87398788 -66.82933044 125.85339355 C-64.89785516 125.8367961 -62.96638221 125.81992475 -61.03491211 125.80273438 C-60.1491449 125.79854996 -59.26337769 125.79436554 -58.35076904 125.79005432 C-54.0610072 125.87038551 -54.0610072 125.87038551 -50.04296875 124.61328125 C-49.91904999 119.86280773 -49.82848314 115.11328164 -49.76831055 110.36157227 C-49.74321916 108.74649664 -49.70913749 107.13153399 -49.66577148 105.5168457 C-49.60487589 103.19063419 -49.57670751 100.86592766 -49.5546875 98.5390625 C-49.51597786 97.4622094 -49.51597786 97.4622094 -49.47648621 96.36360168 C-49.47430707 92.43798232 -49.88125225 90.80929771 -52.41186523 87.74194336 C-54.13345387 86.34911314 -55.87209301 84.97703484 -57.62890625 83.62890625 C-61.19790632 80.64896444 -63.25012808 77.02846439 -65.70703125 73.1171875 C-67.31590323 70.60482849 -69.06677242 68.34597386 -71.00390625 66.078125 C-78.79967418 56.62738958 -80.84272857 48.49580663 -79.92578125 36.26171875 C-78.27898406 23.27617397 -71.62959506 12.37489669 -62.04296875 3.61328125 C-61.34558594 2.95972656 -60.64820313 2.30617188 -59.9296875 1.6328125 C-42.67296568 -13.16317019 -18.25607845 -12.39179321 0 0 Z M-40.04296875 34.61328125 C-41.49028363 38.95522588 -41.7018924 43.08046585 -41.04296875 47.61328125 C-38.60840599 50.77163294 -36.34324632 52.4130962 -33.04296875 54.61328125 C-26.984207 54.95949621 -22.70324253 53.34150027 -18.04296875 49.61328125 C-16.65140391 48.45051093 -16.65140391 48.45051093 -16.9453125 45.234375 C-16.95198506 43.83981048 -16.96394343 42.44526382 -16.98046875 41.05078125 C-16.98498047 40.33986328 -16.98949219 39.62894531 -16.99414062 38.89648438 C-17.00596011 37.13538112 -17.02389612 35.37432089 -17.04296875 33.61328125 C-18.17734375 33.13890625 -19.31171875 32.66453125 -20.48046875 32.17578125 C-24.04296875 30.61328125 -24.04296875 30.61328125 -25.04296875 29.61328125 C-31.79739741 28.61789176 -35.40347926 29.62583004 -40.04296875 34.61328125 Z " fill="#FDFDFD" transform="translate(743.04296875,103.38671875)"/>
<path d="M0 0 C1.24789307 0.01123901 1.24789307 0.01123901 2.52099609 0.02270508 C14.74495218 0.23485246 25.04407413 1.67536131 34.25 10.3125 C38.11289377 14.32635743 41.06029553 18.99323288 44.05078125 23.67578125 C50.22404241 29.56316056 60.34778373 28.61076743 68.4375 28.8125 C69.62359863 28.84859375 70.80969727 28.8846875 72.03173828 28.921875 C81.13798724 29.1867701 90.24689364 29.33668147 99.35546875 29.49609375 C100.56218735 29.51732803 101.76890594 29.53856232 103.01219177 29.56044006 C109.12221499 29.66681787 115.2322485 29.76725181 121.3425293 29.85766602 C123.65283248 29.89466626 125.96313523 29.9316932 128.2734375 29.96875 C129.30715988 29.98228012 130.34088226 29.99581024 131.40592957 30.00975037 C136.84804383 30.10031036 142.24316774 30.342863 147.6706543 30.7565918 C156.6125365 31.38506992 165.5389085 31.40180018 174.4998455 31.41866493 C177.56556008 31.42594624 180.63112501 31.44168974 183.6967926 31.46000671 C192.40095166 31.5119816 201.10501466 31.56051534 209.80932617 31.57592773 C215.163054 31.58602109 220.51638173 31.61535483 225.86995125 31.65724754 C227.89801063 31.66951642 229.92612647 31.67468636 231.95422173 31.67244911 C234.78689247 31.67008955 237.61841291 31.69230372 240.45092773 31.7199707 C241.27756927 31.71336929 242.10421082 31.70676788 242.9559021 31.69996643 C249.23733829 31.80033774 254.65793084 33.32082355 259.31499386 37.73254871 C263.78131008 42.87391883 263.89863578 47.18159486 263.89717102 53.69897461 C263.90084771 54.57174042 263.9045244 55.44450623 263.9083125 56.34371948 C263.91936054 59.27993347 263.92319513 62.21611208 263.92700195 65.15234375 C263.93326591 67.25313937 263.93991264 69.35393388 263.94691467 71.45472717 C263.96797066 78.36564358 263.97832046 85.27656024 263.98828125 92.1875 C263.99232863 94.56681327 263.99644555 96.94612642 264.00063133 99.32543945 C264.01968864 110.50660298 264.03391692 121.68775989 264.0422433 132.86893654 C264.05200949 145.77052965 264.07831072 158.6719509 264.11874419 171.57348347 C264.14892776 181.54730785 264.16371443 191.52108304 264.16702431 201.4949522 C264.16937281 207.45055956 264.17830696 213.40598344 264.20348549 219.36154175 C264.22680932 224.96924551 264.23098195 230.57664556 264.22072411 236.1843853 C264.22022964 238.23740081 264.22652362 240.29043148 264.24028015 242.34340096 C264.32158543 255.20155734 264.11448429 266.72693911 255.75 277.25 C249.79331087 281.22112609 241.56727915 280.63104974 234.625 279.94921875 C228.79603565 278.5315766 225.33526494 274.69578858 222.16235352 269.80053711 C220.20831529 264.88825051 220.41584539 260.59688425 220.53125 255.359375 C220.55016296 253.62551544 220.55016296 253.62551544 220.56945801 251.85662842 C220.59998313 249.18253456 220.63630941 246.50906437 220.68017578 243.83520508 C220.7608319 238.78551175 220.80875468 233.73565175 220.85546875 228.68554688 C220.93169788 220.62523679 221.01536747 212.5650471 221.10571289 204.50488281 C221.48881134 170.17003804 221.85659176 135.83736538 221.8125 101.5 C221.81164398 100.83045792 221.81078796 100.16091583 221.80990601 99.47108459 C221.79919868 91.73069059 221.78030335 83.99034207 221.75 76.25 C218.93384225 74.84192112 216.40159154 74.93866886 213.2578125 74.75 C212.26779739 74.6890918 212.26779739 74.6890918 211.25778198 74.62695312 C209.13041148 74.49723351 207.00273069 74.37365472 204.875 74.25 C203.51169588 74.16704163 202.14841432 74.0837117 200.78515625 74 C198.01902548 73.83176573 195.25260355 73.67112969 192.48565674 73.516922 C189.4768336 73.34897341 186.46877358 73.17202708 183.46087646 72.98832703 C169.18477111 72.15626497 154.92978441 72.08630951 140.6328125 72.08203125 C138.0750222 72.07880996 135.51723207 72.07544526 132.95944214 72.07194519 C127.64304095 72.06600634 122.32665676 72.06405688 117.01025391 72.06469727 C110.87966192 72.06530245 104.74915665 72.05464242 98.61858666 72.0389536 C92.67692392 72.02429661 86.73528778 72.02070897 80.7936058 72.02130699 C78.28100093 72.02012844 75.76839538 72.0157137 73.25580215 72.00797462 C69.75786238 71.99819064 66.26015037 72.00104434 62.76220703 72.00708008 C61.21466736 71.99865082 61.21466736 71.99865082 59.63586426 71.99005127 C54.65466316 72.01192052 50.35173527 72.09730221 45.75 74.25 C43.38361183 76.85486018 43.38361183 76.85486018 41.375 80 C33.35501959 91.35897288 20.4455702 98.65256427 6.75 101.25 C-1.47799701 102.22152734 -7.7016846 100.37104925 -15.25 97.25 C-16.28060547 96.94449219 -16.28060547 96.94449219 -17.33203125 96.6328125 C-29.47093559 93.02328086 -39.71285344 80.99118445 -45.6875 70.25 C-50.95280038 58.37302107 -50.89995862 43.60199321 -46.703125 31.484375 C-41.11639607 19.0493977 -32.17916824 9.25981558 -19.90234375 3.2578125 C-13.17787849 0.70271377 -7.12921372 -0.08485432 0 0 Z M-9.88671875 42.0546875 C-12.27788973 45.90522644 -11.99473952 49.87810321 -11.25 54.25 C-9.61263852 57.43375844 -7.28572658 59.46427638 -4.4375 61.625 C0.7718436 63.11338389 4.43977736 62.95363809 9.125 60.4375 C12.06535266 57.98720612 13.48976326 56.20420137 14.5 52.5 C14.80578443 48.52480245 14.25403789 45.94172937 12.75 42.25 C8.51381682 38.22562598 5.72031831 36.94598449 -0.15234375 37.03125 C-4.19764774 37.45310665 -7.17716304 39.06706282 -9.88671875 42.0546875 Z " fill="#FDFDFD" transform="translate(116.25,217.75)"/>
<path d="M0 0 C9.9 0 19.8 0 30 0 C30 15.18 30 30.36 30 46 C44.19 46 58.38 46 73 46 C73 30.82 73 15.64 73 0 C82.9 0 92.8 0 103 0 C103 39.27 103 78.54 103 119 C93.1 119 83.2 119 73 119 C73 103.16 73 87.32 73 71 C58.81 71 44.62 71 30 71 C30 86.84 30 102.68 30 119 C20.1 119 10.2 119 0 119 C0 79.73 0 40.46 0 0 Z " fill="#FDFDFD" transform="translate(1931,255)"/>
<path d="M0 0 C11.4277487 8.45314525 19.49913917 17.90144762 23.37109375 31.75390625 C23.37109375 32.41390625 23.37109375 33.07390625 23.37109375 33.75390625 C18.74477172 33.90242992 14.11984133 34.01119644 9.49169922 34.08349609 C7.91821112 34.11363706 6.34489063 34.15455919 4.77197266 34.20654297 C2.50771788 34.27949116 0.24568561 34.31338431 -2.01953125 34.33984375 C-2.72072083 34.37081146 -3.4219104 34.40177917 -4.14434814 34.4336853 C-6.14550781 34.43505859 -6.14550781 34.43505859 -9.62890625 33.75390625 C-11.95996094 30.85400391 -11.95996094 30.85400391 -13.62890625 27.75390625 C-19.5621783 22.1413516 -26.57019968 19.76707407 -34.62890625 19.75390625 C-42.46085981 20.42278427 -49.21637565 22.71195334 -54.38671875 28.8359375 C-61.47054289 38.87991038 -61.68600429 49.87476702 -60.62890625 61.75390625 C-59.19294177 68.46867199 -55.85455634 74.25769473 -50.62890625 78.75390625 C-43.34610484 83.4469492 -35.67615798 84.87236347 -27.13671875 83.29296875 C-21.17434719 81.75253841 -16.69906889 79.43945158 -12.62890625 74.75390625 C-12.25846191 73.90401123 -11.88801758 73.05411621 -11.50634766 72.1784668 C-9.62890625 69.75390625 -9.62890625 69.75390625 -6.2590332 69.1862793 C-4.87816488 69.18706889 -3.49713538 69.2152088 -2.1171875 69.265625 C-1.02485054 69.27623711 -1.02485054 69.27623711 0.08955383 69.2870636 C2.41361612 69.31503544 4.73526105 69.37776975 7.05859375 69.44140625 C8.6347308 69.46648594 10.21090566 69.4892997 11.78710938 69.50976562 C15.64936773 69.56486999 19.50982107 69.65115397 23.37109375 69.75390625 C21.52433116 79.31105141 17.77419721 86.44933066 11.37109375 93.75390625 C10.82066406 94.43324219 10.27023437 95.11257813 9.703125 95.8125 C0.29122762 106.4710063 -14.46731626 111.55169379 -28.31640625 112.50390625 C-45.2605646 113.49130962 -61.50139231 108.78819473 -74.62890625 97.75390625 C-74.62890625 97.09390625 -74.62890625 96.43390625 -74.62890625 95.75390625 C-75.28890625 95.75390625 -75.94890625 95.75390625 -76.62890625 95.75390625 C-90.59464174 79.48938598 -94.05916309 61.77031327 -92.62890625 40.75390625 C-90.65670576 26.8358926 -83.48450565 13.28810019 -72.6796875 4.30078125 C-52.35778573 -10.93753204 -21.83527515 -14.30586992 0 0 Z " fill="#FDFDFD" transform="translate(1872.62890625,262.24609375)"/>
<path d="M0 0 C24.42 0 48.84 0 74 0 C74 8.25 74 16.5 74 25 C59.48 25 44.96 25 30 25 C30 31.93 30 38.86 30 46 C42.87 46 55.74 46 69 46 C69 53.92 69 61.84 69 70 C56.13 70 43.26 70 30 70 C30 77.92 30 85.84 30 94 C44.52 94 59.04 94 74 94 C74 102.25 74 110.5 74 119 C49.58 119 25.16 119 0 119 C0 79.73 0 40.46 0 0 Z " fill="#FDFDFD" transform="translate(1675,255)"/>
<path d="M0 0 C7.61751997 0.78568638 15.270674 0.69203221 22.92066765 0.73467827 C25.79357281 0.75127339 28.66635672 0.77451469 31.53919983 0.79957581 C39.70079371 0.86985643 47.86243487 0.93038518 56.02416992 0.98168945 C61.03488901 1.01364969 66.04546253 1.05495712 71.0560627 1.10188484 C72.95325652 1.11779042 74.85048365 1.13016403 76.74772453 1.13879204 C103.96849781 1.26442146 103.96849781 1.26442146 110.90234375 7.50488281 C114.97893675 14.11177492 115.93633678 21.25605376 114.44140625 28.84472656 C112.83100342 34.53797423 110.83832753 37.24713352 105.90234375 40.50488281 C101.73267989 42.59273257 97.942121 42.78494375 93.36499023 42.74780273 C92.62275711 42.74970108 91.88052399 42.75159943 91.11579895 42.7535553 C88.66823669 42.75725133 86.22097332 42.74656805 83.7734375 42.73535156 C82.06055231 42.73415802 80.34766647 42.73370697 78.63478088 42.73396301 C75.04285587 42.73239968 71.45103073 42.72412707 67.85913086 42.71069336 C63.28561655 42.69379377 58.71221279 42.68987671 54.13867092 42.69063854 C50.597895 42.69036457 47.05714261 42.68484579 43.51637459 42.6776371 C41.8321049 42.67448299 40.14783258 42.67249076 38.4635601 42.67174339 C30.09931706 42.66397467 21.84940284 42.52337599 13.51576233 41.72380066 C9.54492287 41.39117594 5.6023322 41.4171181 1.62109375 41.47753906 C-0.06249799 41.49017985 -1.74609184 41.50254121 -3.4296875 41.51464844 C-6.01618491 41.53940078 -8.60256396 41.56744616 -11.18896484 41.60083008 C-38.725165 41.93218288 -38.725165 41.93218288 -46.09765625 35.50488281 C-50.26108002 30.7671937 -50.30659035 26.20763646 -50.34765625 20.12988281 C-50.36828125 19.37449219 -50.38890625 18.61910156 -50.41015625 17.84082031 C-50.44230156 13.2440416 -50.14918093 10.18426544 -47.09765625 6.50488281 C-34.21195462 -2.79878609 -15.07317293 -1.82404347 0 0 Z " fill="#FDFDFD" transform="translate(137.09765625,393.4951171875)"/>
<path d="M0 0 C61.48648649 0 61.48648649 0 73.75 10.3125 C79.50253724 17.18358615 81.36781506 24.21419055 81.28515625 33.046875 C80.6408287 39.71963697 77.82879204 46.30534107 73 51 C70.4038121 52.79736085 67.74222935 54.43586433 65 56 C65.57878906 56.42925781 66.15757813 56.85851562 66.75390625 57.30078125 C75.52096504 63.93325182 82.00711136 70.18957118 83.77734375 81.4296875 C84.62558043 91.22161267 81.92624353 99.06415099 75.8125 106.75 C53.43644393 124.65084486 29.5387922 118 0 118 C0 79.06 0 40.12 0 0 Z M18 14 C18 25.88 18 37.76 18 50 C24.868125 50.0928125 24.868125 50.0928125 31.875 50.1875 C33.29796387 50.21481201 34.72092773 50.24212402 36.18701172 50.27026367 C48.13898036 50.51690616 48.13898036 50.51690616 58.67553711 45.58276367 C63.25349904 40.3585202 63.27868059 35.58000404 63.22265625 28.953125 C62.83531237 23.81572192 60.80916357 20.33343838 57 17 C49.07502493 13.16658372 40.45913227 13.64773832 31.875 13.8125 C25.006875 13.9053125 25.006875 13.9053125 18 14 Z M18 64 C18 76.87 18 89.74 18 103 C26.1675 103.12375 26.1675 103.12375 34.5 103.25 C36.20220703 103.28641602 37.90441406 103.32283203 39.65820312 103.36035156 C50.41262814 103.49949969 50.41262814 103.49949969 60 99 C64.78045566 94.26294074 66.17845468 90.93815588 66.3125 84.25 C66.2665464 78.63217269 66.07006036 75.180062 62 71 C61.29875 70.278125 60.5975 69.55625 59.875 68.8125 C51.20121026 63.34424125 41.82506421 63.62152096 31.875 63.8125 C25.006875 63.9053125 25.006875 63.9053125 18 64 Z " fill="#FCFCFC" transform="translate(1046,256)"/>
<path d="M0 0 C30.36 0 60.72 0 92 0 C92 8.25 92 16.5 92 25 C81.77 25 71.54 25 61 25 C61 56.02 61 87.04 61 119 C51.1 119 41.2 119 31 119 C31 87.98 31 56.96 31 25 C20.77 25 10.54 25 0 25 C0 16.75 0 8.5 0 0 Z " fill="#FDFDFD" transform="translate(1551,255)"/>
<path d="M0 0 C1.32737434 -0.0098568 1.32737434 -0.0098568 2.68156433 -0.01991272 C5.61363815 -0.03964173 8.54566072 -0.05130847 11.4777832 -0.0612793 C12.48004251 -0.06535482 13.48230183 -0.06943035 14.51493263 -0.07362938 C19.82147643 -0.09449007 25.12799438 -0.10879088 30.43457031 -0.11816406 C35.9077369 -0.12921851 41.38049582 -0.16360746 46.85351849 -0.20333576 C51.06839233 -0.22952109 55.28316942 -0.2378577 59.49811745 -0.24144554 C61.51507121 -0.24630782 63.53202076 -0.25791153 65.54889488 -0.27648354 C68.37797398 -0.30091181 71.20600329 -0.29990299 74.03515625 -0.29296875 C74.86194885 -0.30577881 75.68874146 -0.31858887 76.54058838 -0.33178711 C83.29303023 -0.27173347 88.44737833 1.68661703 93.58325195 6.10668945 C98.59346367 12.07579336 100.86599517 16.98582427 100.65356445 24.87231445 C99.92602063 30.23795018 97.4366974 34.48783796 93.40356445 38.05200195 C87.88457421 41.88150539 83.40616532 42.47506736 76.77807617 42.4675293 C75.50138313 42.47760513 75.50138313 42.47760513 74.19889832 42.48788452 C71.38945647 42.50685559 68.58025385 42.5107889 65.77075195 42.51293945 C63.80884708 42.51937023 61.84694316 42.5260988 59.88504028 42.53311157 C55.77107523 42.54508372 51.65719413 42.54879268 47.54321289 42.54760742 C42.29455946 42.54740475 37.04645065 42.57465347 31.79792595 42.60915184 C27.74333267 42.63149489 23.68886864 42.63544262 19.63422012 42.63438797 C17.70069638 42.63673484 15.76716857 42.64550639 13.8337059 42.6610527 C-9.28146364 42.82944388 -9.28146364 42.82944388 -16.63357544 36.46859741 C-21.16865283 31.70864448 -22.71657373 26.79800168 -23.03393555 20.30200195 C-22.87895644 14.23046743 -21.15757804 9.78354037 -16.94018555 5.3840332 C-11.4801665 0.51397384 -7.22960869 0.02322787 0 0 Z " fill="#FDFDFD" transform="translate(108.658935546875,444.822998046875)"/>
<path d="M0 0 C3.58690614 1.8406492 5.83022753 4.76022022 7.5 8.375 C8.07918016 11.58652844 8.06744882 14.74418564 8.04931641 18.0012207 C8.0646492 19.42925522 8.0646492 19.42925522 8.08029175 20.88613892 C8.10802796 24.02461087 8.10617439 27.16220149 8.1015625 30.30078125 C8.10934047 32.49025293 8.11801066 34.67972161 8.12753296 36.8691864 C8.14244603 41.45642887 8.14188405 46.04336347 8.13134766 50.63061523 C8.11976974 56.49513482 8.15359527 62.35838874 8.200037 68.22269917 C8.22957514 72.74477955 8.23124645 77.2665575 8.22501755 81.78871727 C8.22604115 83.94997854 8.23646364 86.11125737 8.25664139 88.2724247 C8.28145799 91.30263819 8.26774057 94.33041799 8.24462891 97.3605957 C8.26756012 98.68650475 8.26756012 98.68650475 8.29095459 100.03919983 C8.17704125 106.83327586 5.87715135 111.22056216 1.5 116.375 C-3.72289503 120.74517747 -8.53242774 121.10757704 -15.2734375 120.890625 C-21.71712057 119.86088388 -26.1359025 116.08805465 -30.4375 111.375 C-34.16177219 105.95787682 -34.79060837 100.98663529 -34.68286133 94.54052734 C-34.67821869 93.77864105 -34.67357605 93.01675476 -34.66879272 92.23178101 C-34.65048472 89.72460967 -34.61693256 87.21792891 -34.58203125 84.7109375 C-34.56344769 82.95464584 -34.54536398 81.19834883 -34.52775574 79.44204712 C-34.48830244 75.76186102 -34.44096993 72.08187709 -34.38842773 68.40185547 C-34.32239345 63.71524443 -34.27858017 59.02873374 -34.24116993 54.34181786 C-34.2092085 50.71254668 -34.16381523 47.08353209 -34.11469078 43.45445633 C-34.09316211 41.7283685 -34.07600132 40.00221987 -34.06351662 38.27604294 C-33.86285584 13.03718334 -33.86285584 13.03718334 -26.5 4.375 C-19.23589684 -2.33032599 -9.17675503 -4.13212234 0 0 Z " fill="#FDFDFD" transform="translate(745.5,434.625)"/>
<path d="M0 0 C6.6 0 13.2 0 20 0 C20.53657227 1.56435791 21.07314453 3.12871582 21.62597656 4.74047852 C27.17308168 20.86623883 32.90506079 36.91757157 38.75 52.9375 C39.6241067 55.3387555 40.49812915 57.74004167 41.37207031 60.14135742 C45.27817098 70.86413308 49.20099158 81.5802667 53.1875 92.2734375 C53.49850647 93.10784866 53.80951294 93.94225983 54.12994385 94.80195618 C55.54508693 98.59480556 56.96536178 102.38562936 58.39355469 106.17358398 C58.88216222 107.47639945 59.37076904 108.77921519 59.859375 110.08203125 C60.27670898 111.18780518 60.69404297 112.2935791 61.12402344 113.43286133 C62 116 62 116 62 118 C56.06 118 50.12 118 44 118 C43.51789063 116.75863281 43.03578125 115.51726562 42.5390625 114.23828125 C41.9010546 112.59634914 41.26303304 110.95442234 40.625 109.3125 C40.30789063 108.49587891 39.99078125 107.67925781 39.6640625 106.83789062 C39.2 105.64389648 39.2 105.64389648 38.7265625 104.42578125 C38.42782227 103.65443848 38.12908203 102.8830957 37.82128906 102.08837891 C37.1640694 100.41719668 36.47408726 98.75891293 35.7734375 97.10546875 C35 95 35 95 35 92 C18.5 92 2 92 -15 92 C-15.99 95.3 -16.98 98.6 -18 102 C-19.03686999 104.89112654 -20.08672324 107.75969267 -21.1875 110.625 C-22.5796875 114.275625 -22.5796875 114.275625 -24 118 C-29.94 118 -35.88 118 -42 118 C-40.02733344 111.25318676 -37.86979703 104.62618224 -35.47265625 98.01953125 C-35.13128632 97.07213074 -34.78991638 96.12473022 -34.4382019 95.14862061 C-33.31563431 92.03561064 -32.1891373 88.92403915 -31.0625 85.8125 C-30.27335011 83.62693267 -29.48437227 81.44130322 -28.69555664 79.25561523 C-21.5924211 59.58729712 -14.44489356 39.9349546 -7.28735352 20.28637695 C-6.87373566 19.15065247 -6.4601178 18.01492798 -6.03396606 16.8447876 C-5.25730875 14.71252792 -4.48028971 12.58039995 -3.70285034 10.44842529 C-3.18852951 9.03644867 -3.18852951 9.03644867 -2.66381836 7.59594727 C-2.36503281 6.77635025 -2.06624725 5.95675323 -1.75840759 5.11231995 C-1.14944551 3.41623625 -0.56987145 1.70961436 0 0 Z M9 24 C6.52084724 30.89240339 4.04339066 37.78541389 1.56812286 44.67921352 C0.41881449 47.87995116 -0.73108633 51.08047339 -1.88232422 54.28051758 C-3.2045454 57.95591671 -4.52422025 61.63222744 -5.84375 65.30859375 C-6.25935181 66.46274277 -6.67495361 67.61689178 -7.10314941 68.80601501 C-7.4835437 69.86703934 -7.86393799 70.92806366 -8.25585938 72.02124023 C-8.59339233 72.96055893 -8.93092529 73.89987762 -9.27868652 74.86766052 C-10.05340603 76.78270562 -10.05340603 76.78270562 -10 78 C2.87 78 15.74 78 29 78 C27.45757298 70.8185587 27.45757298 70.8185587 25.3359375 63.95507812 C25.02221191 63.07807251 24.70848633 62.20106689 24.38525391 61.29748535 C24.05187012 60.38462769 23.71848633 59.47177002 23.375 58.53125 C23.02743652 57.56973022 22.67987305 56.60821045 22.32177734 55.61755371 C21.59167946 53.60306383 20.85872841 51.58960591 20.12304688 49.57714844 C18.99434237 46.4844981 17.87953637 43.38706733 16.765625 40.2890625 C16.05291266 38.32782343 15.3393998 36.36687503 14.625 34.40625 C14.29161621 33.47719849 13.95823242 32.54814697 13.61474609 31.59094238 C13.30102051 30.73915405 12.98729492 29.88736572 12.6640625 29.00976562 C12.25341553 27.8813324 12.25341553 27.8813324 11.83447266 26.73010254 C11.12443737 24.80749777 11.12443737 24.80749777 9 24 Z " fill="#FCFCFC" transform="translate(1304,256)"/>
<path d="M0 0 C0.66257812 0.46148437 1.32515625 0.92296875 2.0078125 1.3984375 C9.02737357 6.84410595 14.41848868 14.95265359 18 23 C18 23.99 18 24.98 18 26 C11.4 26 4.8 26 -2 26 C-2.680625 24.63875 -3.36125 23.2775 -4.0625 21.875 C-6.70128366 17.1533562 -9.56498013 14.05960232 -14 11 C-14.54914063 10.60941406 -15.09828125 10.21882813 -15.6640625 9.81640625 C-24.43209855 4.54399691 -37.32961748 4.00497171 -47.125 6.12109375 C-57.99318706 9.44356941 -65.84311611 14.72811104 -71.52734375 24.671875 C-77.85917237 37.66588851 -79.01458782 52.18427166 -75.0390625 66.1171875 C-71.25677571 76.61090048 -65.85345303 84.87270592 -55.6875 89.8125 C-43.54970418 94.80266572 -30.96584162 95.60827069 -18.5 90.875 C-9.51846853 86.66188914 -6.45387389 81.90774777 -2 73 C4.6 73 11.2 73 18 73 C15.75200955 84.23995225 8.35843459 92.96554905 -0.6875 99.75 C-15.05697415 109.24883951 -32.09743797 111.97433246 -48.875 108.9375 C-65.68586786 104.99512833 -78.81373897 95.52035295 -88 81 C-93.27930017 70.9336421 -95.38493161 60.97751929 -95.3125 49.6875 C-95.30686035 48.76396729 -95.3012207 47.84043457 -95.29541016 46.88891602 C-95.00717401 30.64352742 -89.38793218 17.32191692 -77.91015625 5.76171875 C-56.85963959 -14.54871341 -23.93278502 -16.92443053 0 0 Z " fill="#FCFCFC" transform="translate(1496,265)"/>
<path d="M0 0 C7.11969175 5.46394949 8.83096101 13.99700878 10.0234375 22.44140625 C11.67368783 37.0483517 10.63246719 51.81033069 9.8125 66.4375 C9.77329437 67.16856964 9.73408875 67.89963928 9.69369507 68.65286255 C8.11310221 97.63689779 8.11310221 97.63689779 0.3125 105.4375 C-5.27717082 108.89777241 -9.90959015 109.28328999 -16.3125 109.0625 C-16.3125 108.4025 -16.3125 107.7425 -16.3125 107.0625 C-16.993125 107.02125 -17.67375 106.98 -18.375 106.9375 C-23.29693077 105.47139296 -26.85271056 102.34643483 -29.61328125 98.02734375 C-32.16740316 93.05841567 -33.42896005 88.74728837 -33.47363281 83.13647461 C-33.48324036 82.15702377 -33.4928479 81.17757294 -33.50274658 80.16844177 C-33.50699646 79.11125443 -33.51124634 78.05406708 -33.515625 76.96484375 C-33.52132507 75.861371 -33.52702515 74.75789825 -33.53289795 73.62098694 C-33.54235028 71.27654985 -33.54888285 68.93209946 -33.55273438 66.58764648 C-33.56232214 63.06534121 -33.59329333 59.54364975 -33.625 56.02148438 C-33.80230223 18.56083636 -33.80230223 18.56083636 -25.3125 5.0625 C-18.20557952 -1.39116947 -9.09096877 -2.57291569 0 0 Z " fill="#FDFDFD" transform="translate(790.3125,391.9375)"/>
<path d="M0 0 C8.35253488 7.1870649 9.74000001 13.75463018 10.57519531 24.25537109 C10.65350586 25.36734863 10.73181641 26.47932617 10.8125 27.625 C10.8959668 28.78854004 10.97943359 29.95208008 11.06542969 31.15087891 C12.03717589 45.49900901 11.78703739 59.46000963 10.875 73.8125 C10.80506836 74.99440918 10.73513672 76.17631836 10.66308594 77.39404297 C9.86705818 88.59710293 8.34273257 97.6018251 -0.3125 105.3125 C-4.34696169 107.79524565 -8.68313544 107.94157741 -13.3125 107.3125 C-20.96155008 105.41822114 -25.91870567 101.85616312 -30.3125 95.3125 C-31.48601528 91.79195417 -31.47554726 88.60269008 -31.48950195 84.9387207 C-31.49607315 84.19035446 -31.50264435 83.44198822 -31.50941467 82.67094421 C-31.52912938 80.19338883 -31.54080773 77.71589409 -31.55078125 75.23828125 C-31.55485678 74.39047781 -31.5589323 73.54267437 -31.56313133 72.66917992 C-31.58398681 68.17960225 -31.59828935 63.69005507 -31.60766602 59.20043945 C-31.61871415 54.57471708 -31.65309688 49.9494779 -31.69283772 45.32392597 C-31.71905101 41.75757485 -31.72736214 38.19133789 -31.73094749 34.62489891 C-31.73580327 32.92054172 -31.7473884 31.21618929 -31.76598549 29.51192665 C-31.94824081 11.69896807 -31.94824081 11.69896807 -25.3828125 4.0703125 C-17.47217668 -2.56953845 -9.65366565 -4.91790514 0 0 Z " fill="#FDFDFD" transform="translate(835.3125,440.6875)"/>
<path d="M0 0 C29.47412973 -0.65461698 29.47412973 -0.65461698 38.86474609 7.6015625 C43.75376257 12.7485127 44.75755185 17.69613493 45.49365234 24.56640625 C44.93285595 29.80050588 43.38903425 33.85877359 39.56396484 37.578125 C28.50033572 45.4841089 12.06433351 45.23097227 -0.88916016 43.57421875 C-5.01605392 43.08398204 -9.1057873 42.94518791 -13.26025391 42.85546875 C-13.9217897 42.84116821 -14.5833255 42.82686768 -15.26490784 42.81213379 C-18.01906757 42.75451426 -20.77303529 42.69989456 -23.52758789 42.66503906 C-41.31771115 42.4217123 -41.31771115 42.4217123 -46.42236328 37.61547852 C-51.86218139 31.33781429 -51.55328281 24.88925423 -51.11669922 16.97021484 C-50.50451327 12.01811313 -47.81033383 8.70554754 -44.12817383 5.57666016 C-36.43825822 0.4077133 -25.75707597 0.5581886 -16.81884766 0.37890625 C-15.64435059 0.34692139 -14.46985352 0.31493652 -13.25976562 0.28198242 C-8.84012697 0.17008902 -4.41984243 0.10186385 0 0 Z " fill="#FDFDFD" transform="translate(136.88134765625,491.93359375)"/>
<path d="M0 0 C5.61 0 11.22 0 17 0 C17 33.99 17 67.98 17 103 C30.53 103 44.06 103 58 103 C58 107.95 58 112.9 58 118 C38.86 118 19.72 118 0 118 C0 79.06 0 40.12 0 0 Z " fill="#FCFCFC" transform="translate(1173,256)"/>
<path d="M0 0 C12 0 12 0 15.25146484 2.87963867 C16.11477048 4.19828469 16.93279276 5.54734308 17.7109375 6.91796875 C18.40142685 8.00855339 18.40142685 8.00855339 19.10586548 9.12117004 C20.57051364 11.45366078 21.97291095 13.81699018 23.375 16.1875 C24.30586565 17.69845388 25.24073888 19.20694641 26.1796875 20.71289062 C29.13194838 25.46773387 32.06565179 30.2340815 35 35 C39.62 41.93 44.24 48.86 49 56 C49.33 37.52 49.66 19.04 50 0 C53.96 0 57.92 0 62 0 C62 25.74 62 51.48 62 78 C50 78 50 78 46.53320312 74.79736328 C45.57248081 73.33257875 44.65707424 71.83738632 43.78125 70.3203125 C43.27178833 69.51955292 42.76232666 68.71879333 42.23742676 67.89376831 C40.61695149 65.32741558 39.0583928 62.7294174 37.5 60.125 C36.45581649 58.44412713 35.40766656 56.76571146 34.35546875 55.08984375 C32.8440123 52.67894387 31.33778445 50.26680296 29.86340332 47.83303833 C24.51237626 39.01572343 18.74442025 30.61663037 13 22 C12.67 40.48 12.34 58.96 12 78 C8.04 78 4.08 78 0 78 C0 52.26 0 26.52 0 0 Z " fill="#FDFDFD" transform="translate(1094,458)"/>
<path d="M0 0 C38.43526119 0 38.43526119 0 46.4609375 6.37109375 C51.05024978 11.22831004 53.28337668 16.92866898 53.5625 23.5625 C53.24780684 30.28549022 50.67831456 35.48252816 47 41 C44.6171875 42.38671875 44.6171875 42.38671875 41.875 43.6875 C40.96492188 44.12449219 40.05484375 44.56148437 39.1171875 45.01171875 C38.41851563 45.33785156 37.71984375 45.66398438 37 46 C38.43976832 49.92186425 40.29548245 53.32732122 42.4765625 56.88671875 C43.48203125 58.5409082 43.48203125 58.5409082 44.5078125 60.22851562 C45.57106827 61.96728929 46.63581579 63.70513945 47.70117188 65.44262695 C48.73408624 67.13011527 49.76166038 68.82086873 50.7890625 70.51171875 C51.40475098 71.51678467 52.02043945 72.52185059 52.65478516 73.55737305 C54 76 54 76 54 78 C49.38 78 44.76 78 40 78 C37.73714899 74.06871093 35.47597761 70.13655148 33.21899414 66.2019043 C32.45076086 64.86378043 31.68156174 63.52621057 30.91137695 62.18920898 C29.80425461 60.26691339 28.70062538 58.34264964 27.59765625 56.41796875 C27.25283707 55.82098679 26.90801788 55.22400482 26.55274963 54.6089325 C25.11076809 52.0858899 23.92232555 49.76697665 23 47 C19.37 47 15.74 47 12 47 C12 57.23 12 67.46 12 78 C8.04 78 4.08 78 0 78 C0 52.26 0 26.52 0 0 Z M12 10 C12 18.91 12 27.82 12 37 C16.7953125 37.0928125 16.7953125 37.0928125 21.6875 37.1875 C22.68612061 37.21481201 23.68474121 37.24212402 24.71362305 37.27026367 C30.76111462 37.32693034 34.0855571 36.49809391 38.75 32.5 C41.49106036 29.21072756 41.34234607 25.35616688 41.26953125 21.28515625 C40.83157449 17.57204457 39.55696086 15.6848089 37 13 C29.38096555 8.51821503 20.55798059 9.79942233 12 10 Z " fill="#FDFDFD" transform="translate(1212,614)"/>
<path d="M0 0 C4.29 0 8.58 0 13 0 C18.60136148 14.11711907 23.83781296 28.36040004 29.01806641 42.63671875 C30.16225984 45.78891196 31.30913899 48.94009888 32.45752525 52.090765 C33.56477652 55.13011499 34.66897784 58.17057218 35.7734375 61.2109375 C36.18379242 62.33688324 36.59414734 63.46282898 37.01693726 64.62289429 C37.39468292 65.66563507 37.77242859 66.70837585 38.16162109 67.78271484 C38.4935849 68.6966098 38.82554871 69.61050476 39.16757202 70.55209351 C39.88694296 72.66753513 40.45807599 74.83230394 41 77 C36.71 77 32.42 77 28 77 C26.02 71.72 24.04 66.44 22 61 C11.44 60.67 0.88 60.34 -10 60 C-10.33 61.98 -10.66 63.96 -11 66 C-12.20918245 69.7198143 -13.61606324 73.33926405 -15 77 C-19.29 77 -23.58 77 -28 77 C-25.71744978 69.09836593 -23.05852081 61.38265739 -20.25390625 53.65234375 C-19.79680802 52.38787425 -19.33985597 51.1233519 -18.88304138 49.85877991 C-17.9309168 47.22509974 -16.9767897 44.5921562 -16.02124023 41.9597168 C-14.80576115 38.61058437 -13.59573932 35.25951036 -12.38726902 31.90784359 C-11.44672295 29.30139012 -10.50306103 26.69607284 -9.55851555 24.09106636 C-8.89650845 22.26343879 -8.23722584 20.43482508 -7.57801819 18.60618591 C-5.27722139 12.28175383 -2.81958479 6.11146931 0 0 Z M6 16 C4.44908759 20.19824485 2.90090727 24.39748399 1.35522461 28.59765625 C0.82927788 30.0256656 0.30259226 31.45340303 -0.22485352 32.88085938 C-0.9838909 34.93548271 -1.74024502 36.99107684 -2.49609375 39.046875 C-2.95169678 40.28276367 -3.4072998 41.51865234 -3.87670898 42.79199219 C-5.08970375 46.09899058 -5.08970375 46.09899058 -6 50 C2.25 50 10.5 50 19 50 C15.04 38.78 11.08 27.56 7 16 C6.67 16 6.34 16 6 16 Z " fill="#FCFCFC" transform="translate(1461,615)"/>
<path d="M0 0 C4.29 0 8.58 0 13 0 C16.70273715 8.70134901 20.07178973 17.47600191 23.265625 26.375 C23.74912489 27.71597516 24.23283265 29.0568754 24.71673584 30.39770508 C25.72025726 33.18031919 26.72176096 35.9636479 27.72167969 38.74755859 C29.00155928 42.31060802 30.28588077 45.87203692 31.57159805 49.4329834 C32.5665172 52.18966126 33.55947928 54.94704075 34.55181122 57.70465088 C35.0249429 59.01892747 35.49859508 60.33301681 35.97278595 61.64691162 C36.63255505 63.47615067 37.28948562 65.30641277 37.94628906 67.13671875 C38.31981506 68.17530029 38.69334106 69.21388184 39.07818604 70.28393555 C40 73 40 73 41 77 C36.71 77 32.42 77 28 77 C27.16080602 74.73117913 26.32848276 72.46022973 25.5 70.1875 C25.26152344 69.54490234 25.02304688 68.90230469 24.77734375 68.24023438 C23.72931254 65.35066261 23 63.09923939 23 60 C7.16 60.495 7.16 60.495 -9 61 C-10.98 66.28 -12.96 71.56 -15 77 C-19.29 77 -23.58 77 -28 77 C-25.47510234 69.28930308 -22.751812 61.65561099 -20 54.0234375 C-19.51819631 52.68544681 -19.03642609 51.34744406 -18.5546875 50.00942993 C-17.5502441 47.22052851 -16.5449251 44.43194454 -15.5390625 41.64355469 C-14.25593276 38.08611009 -12.97573979 34.52761641 -11.69628906 30.96884727 C-10.70426441 28.21096817 -9.71030865 25.45378796 -8.71582031 22.69679642 C-8.24312898 21.38543617 -7.77111038 20.07383322 -7.29980469 18.76197433 C-5.02499656 12.43248191 -2.75734197 6.13712668 0 0 Z M6 16 C2.04 27.22 -1.92 38.44 -6 50 C2.25 50 10.5 50 19 50 C17.7625 46.24625 16.525 42.4925 15.25 38.625 C14.86875977 37.46307129 14.48751953 36.30114258 14.09472656 35.10400391 C11.95036812 28.63690855 9.61773528 22.29066802 7 16 C6.67 16 6.34 16 6 16 Z " fill="#FCFCFC" transform="translate(1074,615)"/>
<path d="M0 0 C9.91942367 -0.47235351 19.98959883 2.08201394 27.67578125 8.546875 C33.05587878 13.67920488 37.05832254 17.78631394 38.45703125 25.24609375 C33.70804781 25.70878226 29.18808853 25.95899279 24.45703125 25.24609375 C22.43082445 23.39607885 21.6452166 21.77566943 20.52734375 19.2890625 C18.6885559 15.77925942 15.99531727 14.85440558 12.45703125 13.24609375 C3.29388567 10.40302133 -5.12690933 12.26962545 -13.54296875 16.24609375 C-14.53296875 16.57609375 -15.52296875 16.90609375 -16.54296875 17.24609375 C-17.66344817 19.07999197 -17.66344817 19.07999197 -18.54296875 21.24609375 C-18.88457031 21.90609375 -19.22617188 22.56609375 -19.578125 23.24609375 C-19.91714844 23.90609375 -20.25617188 24.56609375 -20.60546875 25.24609375 C-20.94707031 25.90609375 -21.28867188 26.56609375 -21.640625 27.24609375 C-25.22154298 35.18302018 -24.58620541 45.24654597 -21.79296875 53.30859375 C-18.6215527 60.81868314 -14.95319582 64.14201506 -7.54296875 67.24609375 C-0.72226167 69.51966278 7.84405824 69.33406001 14.51953125 66.62109375 C19.462379 64.0346129 22.66915289 60.60972882 24.45703125 55.24609375 C29.07703125 55.24609375 33.69703125 55.24609375 38.45703125 55.24609375 C36.67981066 63.77675256 32.4682828 69.17372663 25.26953125 74.05859375 C15.1768205 80.03238741 4.69409747 81.79786333 -6.83984375 79.625 C-18.04719775 76.66531144 -25.89049948 70.51585724 -32.13671875 60.79296875 C-37.43902909 51.18989559 -38.18448391 39.73956409 -35.8515625 29.08984375 C-33.80843563 23.00320639 -30.75946714 17.12518475 -26.54296875 12.24609375 C-25.88296875 12.24609375 -25.22296875 12.24609375 -24.54296875 12.24609375 C-24.21296875 11.25609375 -23.88296875 10.26609375 -23.54296875 9.24609375 C-16.11887963 3.83470411 -9.03692826 0.87454144 0 0 Z " fill="#FCFCFC" transform="translate(1370.54296875,612.75390625)"/>
<path d="M0 0 C3.96 0 7.92 0 12 0 C12.01981934 1.58868896 12.03963867 3.17737793 12.06005859 4.81420898 C12.13640444 10.73526261 12.22507681 16.65607975 12.31738281 22.5769043 C12.35555308 25.13447382 12.39042633 27.69209485 12.421875 30.24975586 C12.46778545 33.93622177 12.52573723 37.6223368 12.5859375 41.30859375 C12.59748871 42.44332626 12.60903992 43.57805878 12.62094116 44.74717712 C12.57241549 54.0997203 12.57241549 54.0997203 15 63 C16.92507458 64.2144553 16.92507458 64.2144553 19 65 C19.59941406 65.36480469 20.19882813 65.72960937 20.81640625 66.10546875 C23.89809207 67.36791249 26.6189028 67.30187482 29.9375 67.3125 C31.74541016 67.33763672 31.74541016 67.33763672 33.58984375 67.36328125 C37.24737045 66.97364782 39.00917611 66.05456597 42 64 C42.99 63.67 43.98 63.34 45 63 C47.21396691 55.81600775 47.33799896 48.78069217 47.4140625 41.30859375 C47.43342865 40.12274185 47.4527948 38.93688995 47.4727478 37.71510315 C47.53216194 33.95597352 47.57877598 30.19681263 47.625 26.4375 C47.66321489 23.87694033 47.70226863 21.31639304 47.7421875 18.75585938 C47.83783205 12.50400765 47.92200337 6.2520958 48 0 C51.96 0 55.92 0 60 0 C60.04962091 7.38320956 60.08582429 14.76632095 60.10986328 22.1496582 C60.11989011 24.65879 60.13351495 27.1679102 60.15087891 29.67700195 C60.17527318 33.29381176 60.18651661 36.91046638 60.1953125 40.52734375 C60.20563507 41.64020248 60.21595764 42.75306122 60.22659302 43.89964294 C60.22810107 54.48580524 58.90670946 63.59438763 52 72 C43.51751454 78.60091596 33.47748369 80.03159092 23 79 C19.45201477 78.0253843 16.25225686 76.7120155 13 75 C12.14792969 74.55527344 11.29585937 74.11054687 10.41796875 73.65234375 C7.70903829 71.80116833 6.47669789 70.18584362 4.8125 67.375 C4.32394531 66.57835937 3.83539062 65.78171875 3.33203125 64.9609375 C-0.22027336 57.0646123 -0.27447283 49.06148368 -0.1953125 40.52734375 C-0.1924826 39.3636879 -0.18965271 38.20003204 -0.18673706 37.00111389 C-0.17561231 33.31313451 -0.15052183 29.62540501 -0.125 25.9375 C-0.11496025 23.42513374 -0.10583615 20.91276363 -0.09765625 18.40039062 C-0.07569819 12.26683195 -0.04122161 6.13345823 0 0 Z " fill="#FCFCFC" transform="translate(1460,458)"/>
<path d="M0 0 C6.13745813 5.1595115 8.89896366 9.29521054 9.6953125 17.41796875 C5.4053125 17.41796875 1.1153125 17.41796875 -3.3046875 17.41796875 C-4.62304688 14.390625 -4.62304688 14.390625 -5.94140625 11.36328125 C-7.76750806 8.75755432 -9.26329369 8.26621876 -12.3046875 7.41796875 C-15.06458169 7.14141192 -15.06458169 7.14141192 -17.8671875 7.23046875 C-18.79660156 7.23691406 -19.72601562 7.24335938 -20.68359375 7.25 C-23.03106852 7.4004343 -25.05523294 7.75636447 -27.3046875 8.41796875 C-27.3046875 9.07796875 -27.3046875 9.73796875 -27.3046875 10.41796875 C-27.9646875 10.41796875 -28.6246875 10.41796875 -29.3046875 10.41796875 C-30.56210004 17.14692274 -30.56210004 17.14692274 -28.3046875 23.41796875 C-25.35823794 25.98424459 -22.58738973 27.16702541 -18.875 28.3203125 C-17.31072266 28.82014648 -17.31072266 28.82014648 -15.71484375 29.33007812 C-13.53296913 30.0111032 -11.35067979 30.69080109 -9.16796875 31.36914062 C3.36540206 35.3795102 3.36540206 35.3795102 7.12109375 40.27734375 C10.68763227 47.88176949 11.56697577 54.01655489 8.82421875 62.0234375 C6.11852726 67.76249938 1.79830822 71.18113113 -3.8671875 73.85546875 C-12.9124027 77.03574989 -22.57001354 76.5935092 -31.23828125 72.56640625 C-33.88258427 71.09679361 -36.16206501 69.56059124 -38.3046875 67.41796875 C-38.3046875 66.75796875 -38.3046875 66.09796875 -38.3046875 65.41796875 C-38.9646875 65.41796875 -39.6246875 65.41796875 -40.3046875 65.41796875 C-42.76746391 60.28718457 -43.3046875 58.49311266 -43.3046875 52.41796875 C-39.3446875 52.41796875 -35.3846875 52.41796875 -31.3046875 52.41796875 C-30.5621875 54.55265625 -30.5621875 54.55265625 -29.8046875 56.73046875 C-28.2333232 60.26187403 -27.12759533 62.04042371 -23.4921875 63.48046875 C-17.00228733 65.25918213 -11.56816666 64.46318643 -5.3046875 62.41796875 C-5.3046875 61.75796875 -5.3046875 61.09796875 -5.3046875 60.41796875 C-4.6446875 60.41796875 -3.9846875 60.41796875 -3.3046875 60.41796875 C-2.00453149 53.20500366 -2.00453149 53.20500366 -4.3046875 46.41796875 C-9.38039312 42.99963639 -14.91448762 41.62432471 -20.7421875 39.98046875 C-36.60641754 35.47989291 -36.60641754 35.47989291 -40.8046875 29.29296875 C-43.61254031 23.35377778 -44.24551089 16.28765774 -42.1796875 10.04296875 C-39.54170548 4.19404934 -34.78555317 0.53453943 -29.3046875 -2.58203125 C-19.8339515 -6.13355725 -8.49083758 -5.82845631 0 0 Z " fill="#FBFBFB" transform="translate(1228.3046875,461.58203125)"/>
<path d="M0 0 C14.19 0 28.38 0 43 0 C43 3.3 43 6.6 43 10 C32.44 10 21.88 10 11 10 C11 17.92 11 25.84 11 34 C20.24 34 29.48 34 39 34 C39 37.3 39 40.6 39 44 C29.76 44 20.52 44 11 44 C11 51.92 11 59.84 11 68 C21.56 68 32.12 68 43 68 C43 71.3 43 74.6 43 78 C28.81 78 14.62 78 0 78 C0 52.26 0 26.52 0 0 Z " fill="#FDFDFD" transform="translate(1626,458)"/>
<path d="M0 0 C14.85 0 29.7 0 45 0 C45 3.3 45 6.6 45 10 C34.11 10 23.22 10 12 10 C12 17.92 12 25.84 12 34 C20.91 34 29.82 34 39 34 C39 37.3 39 40.6 39 44 C30.09 44 21.18 44 12 44 C12 55.22 12 66.44 12 78 C8.04 78 4.08 78 0 78 C0 52.26 0 26.52 0 0 Z " fill="#FDFDFD" transform="translate(1141,614)"/>
<path d="M0 0 C17.49 0 34.98 0 53 0 C53 3.3 53 6.6 53 10 C46.07 10 39.14 10 32 10 C32 32.44 32 54.88 32 78 C28.04 78 24.08 78 20 78 C20 55.56 20 33.12 20 10 C13.4 10 6.8 10 0 10 C0 6.7 0 3.4 0 0 Z " fill="#FBFBFB" transform="translate(1263,458)"/>
<path d="M0 0 C17.49 0 34.98 0 53 0 C53 3.3 53 6.6 53 10 C46.07 10 39.14 10 32 10 C32 32.44 32 54.88 32 78 C28.37 78 24.74 78 21 78 C21 55.56 21 33.12 21 10 C14.07 10 7.14 10 0 10 C0 6.7 0 3.4 0 0 Z " fill="#FDFDFD" transform="translate(1546,458)"/>
<path d="M0 0 C17.49 0 34.98 0 53 0 C53 3.3 53 6.6 53 10 C46.07 10 39.14 10 32 10 C32 32.44 32 54.88 32 78 C28.37 78 24.74 78 21 78 C21 55.56 21 33.12 21 10 C14.07 10 7.14 10 0 10 C0 6.7 0 3.4 0 0 Z " fill="#FDFDFD" transform="translate(1381,458)"/>
<path d="M0 0 C3.96 0 7.92 0 12 0 C12 25.74 12 51.48 12 78 C8.04 78 4.08 78 0 78 C0 52.26 0 26.52 0 0 Z " fill="#E9E9E9" transform="translate(1295,614)"/>
<path d="M0 0 C3.96 0 7.92 0 12 0 C12 25.74 12 51.48 12 78 C8.04 78 4.08 78 0 78 C0 52.26 0 26.52 0 0 Z " fill="#F9F9F9" transform="translate(1342,458)"/>
<path d="M0 0 C3.96 0 7.92 0 12 0 C12 25.74 12 51.48 12 78 C8.04 78 4.08 78 0 78 C0 52.26 0 26.52 0 0 Z " fill="#FDFDFD" transform="translate(1051,458)"/>
</svg>
